HIERARCHY
ROOT Hips
{
	OFFSET 0.000000 0.000000 0.000000
	CHANNELS 6 Xposition Yposition Zposition Xrotation Yrotation Zrotation
	JOINT LeftUpLeg_virtual
	{
		OFFSET 0.000000 0.000000 0.000000
		CHANNELS 3 Xrotation Yrotation Zrotation
		JOINT LeftUpLeg
		{
			OFFSET 10.205400 -3.823500 0.155100
			CHANNELS 3 Xrotation Yrotation Zrotation
			JOINT LeftLeg
			{
				OFFSET 0.708757 -12.982077 0.567790
				CHANNELS 3 Xrotation Yrotation Zrotation
				JOINT LeftFoot
				{
					OFFSET -0.708756 -10.717838 -2.184338
					CHANNELS 3 Xrotation Yrotation Zrotation
					JOINT LeftToeBase
					{
						OFFSET 0.108149 -7.191104 7.560241
						CHANNELS 3 Xrotation Yrotation Zrotation
						JOINT LeftToe_End
						{
							OFFSET 0.070230 0.081724 4.490308
							CHANNELS 3 Xrotation Yrotation Zrotation
							End Site
							{
								OFFSET 0 0 0
							}
						}
					}
				}
			}
		}
	}
	JOINT RightUpLeg_virtual
	{
		OFFSET 0.000000 0.000000 0.000000
		CHANNELS 3 Xrotation Yrotation Zrotation
		JOINT RightUpLeg
		{
			OFFSET -10.205400 -3.823500 0.005500
			CHANNELS 3 Xrotation Yrotation Zrotation
			JOINT RightLeg
			{
				OFFSET -0.708756 -12.982134 0.610632
				CHANNELS 3 Xrotation Yrotation Zrotation
				JOINT RightFoot
				{
					OFFSET 0.708754 -10.717769 -1.945823
					CHANNELS 3 Xrotation Yrotation Zrotation
					JOINT RightToeBase
					{
						OFFSET -0.108140 -7.191069 7.372968
						CHANNELS 3 Xrotation Yrotation Zrotation
						JOINT RightToe_End
						{
							OFFSET -0.070227 0.081735 4.479403
							CHANNELS 3 Xrotation Yrotation Zrotation
							End Site
							{
								OFFSET 0 0 0
							}
						}
					}
				}
			}
		}
	}
	JOINT Spine_virtual
	{
		OFFSET 0.000000 0.000000 0.000000
		CHANNELS 3 Xrotation Yrotation Zrotation
		JOINT Spine
		{
			OFFSET 0.000000 6.876099 0.125700
			CHANNELS 3 Xrotation Yrotation Zrotation
			JOINT Spine1
			{
				OFFSET 0.000000 5.730043 0.104720
				CHANNELS 3 Xrotation Yrotation Zrotation
				JOINT Spine1_split
				{
					OFFSET 0.000000 5.730043 0.104720
					CHANNELS 3 Xrotation Yrotation Zrotation
					JOINT Spine2
					{
						OFFSET 0.000000 5.730043 0.104720
						CHANNELS 3 Xrotation Yrotation Zrotation
						JOINT Neck_virtual
						{
							OFFSET 0.000000 0.000000 0.000000
							CHANNELS 3 Xrotation Yrotation Zrotation
							JOINT Neck
							{
								OFFSET 0.000000 10.314075 0.188496
								CHANNELS 3 Xrotation Yrotation Zrotation
								JOINT Head
								{
									OFFSET 0.000000 7.643700 -2.377400
									CHANNELS 3 Xrotation Yrotation Zrotation
									JOINT HeadTop_End
									{
										OFFSET 0.000000 43.788605 -13.619600
										CHANNELS 3 Xrotation Yrotation Zrotation
										End Site
										{
											OFFSET 0 0 0
										}
									}
								}
							}
						}
						JOINT LeftShoulder_virtual
						{
							OFFSET 0.000000 0.000000 0.000000
							CHANNELS 3 Xrotation Yrotation Zrotation
							JOINT LeftShoulder
							{
								OFFSET 2.196100 4.412489 0.087492
								CHANNELS 3 Xrotation Yrotation Zrotation
								JOINT LeftShoulder_split
								{
									OFFSET 2.196100 4.412489 0.087492
									CHANNELS 3 Xrotation Yrotation Zrotation
									JOINT LeftArm
									{
										OFFSET 8.771219 -2.981674 -0.026999
										CHANNELS 3 Xrotation Yrotation Zrotation
										JOINT LeftForeArm
										{
											OFFSET 8.512804 0.000000 -0.000000
											CHANNELS 3 Xrotation Yrotation Zrotation
											JOINT LeftHand
											{
												OFFSET 18.484802 0.000000 -0.000000
												CHANNELS 3 Xrotation Yrotation Zrotation
												End Site
												{
													OFFSET 0 0 0
												}
											}
										}
									}
								}
							}
						}
						JOINT RightShoulder_virtual
						{
							OFFSET 0.000000 0.000000 0.000000
							CHANNELS 3 Xrotation Yrotation Zrotation
							JOINT RightShoulder
							{
								OFFSET -2.196100 4.412496 0.070690
								CHANNELS 3 Xrotation Yrotation Zrotation
								JOINT RightShoulder_split
								{
									OFFSET -2.196100 4.412496 0.070690
									CHANNELS 3 Xrotation Yrotation Zrotation
									JOINT RightArm
									{
										OFFSET -8.771282 -2.981682 -0.094208
										CHANNELS 3 Xrotation Yrotation Zrotation
										JOINT RightForeArm
										{
											OFFSET -8.494598 0.000000 0.000000
											CHANNELS 3 Xrotation Yrotation Zrotation
											JOINT RightHand
											{
												OFFSET -18.483803 0.000000 0.000001
												CHANNELS 3 Xrotation Yrotation Zrotation
												End Site
												{
													OFFSET 0 0 0
												}
											}
										}
									}
								}
							}
						}
					}
				}
			}
		}
	}
}
MOTION
Frames: 11
Frame Time: 0.03333333
6.098526 49.289478 -6.902639 0.000000 0.000000 0.000000 -89.449052 -10.289406 -3.123253 16.330465 28.847693 2.936393 0.921748 -16.328259 -8.908788 5.008910 31.945191 -3.786956 10.479365 0.120351 8.172649 0.000000 0.000000 0.000000 -88.548929 -5.886984 0.734865 9.075561 -19.898894 -9.457561 -10.419937 20.778146 -11.307941 13.614293 -29.638964 21.747208 5.077100 -6.513651 -38.890605 0.000000 0.000000 0.000000 -91.697448 -1.389174 3.555124 1.494712 -5.759500 -2.813003 -1.304986 -2.699820 -0.744080 0.020533 0.538317 -0.164249 0.000000 0.000000 0.000000 1.092353 0.661465 0.001006 -7.126461 -24.070621 -13.402908 6.505622 -52.967034 28.964397 0.000000 0.000000 0.000000 -0.218221 0.830251 -1.751603 3.785389 -4.246282 -11.186554 7.902171 -9.588792 1.123231 51.912173 -26.645980 -28.040437 -21.904065 -33.378721 -12.032420 0.000000 0.000000 0.000000 2.099404 -0.752509 -2.658633 -1.377789 -1.122194 6.692702 19.837178 7.143382 6.343468 -8.756899 -1.438169 72.660611 106.759381 77.975065 -98.733123 0.000000 0.000000 0.000000 
6.099786 49.289558 -6.905212 0.000000 0.000000 0.000000 -89.452303 -10.276721 -3.122740 16.331541 28.846952 2.934083 0.920742 -16.327846 -8.904051 4.992368 31.933942 -3.759486 10.480281 0.120039 8.169841 0.000000 0.000000 0.000000 -88.552173 -5.874436 0.735242 9.084020 -19.909887 -9.452938 -10.421016 20.774678 -11.305615 13.621894 -29.648475 21.749960 5.071586 -6.507366 -38.881747 0.000000 0.000000 0.000000 -91.700023 -1.391863 3.546911 1.507800 -5.749943 -2.778882 -1.298850 -2.690366 -0.744083 0.020077 0.537382 -0.163864 0.000000 0.000000 0.000000 1.096391 0.670037 -0.002141 -7.185809 -24.043632 -13.398235 6.394708 -52.943160 28.851634 0.000000 0.000000 0.000000 -0.213630 0.835894 -1.752345 3.782779 -4.268164 -11.209171 7.886529 -9.604311 1.134701 51.916807 -26.615748 -28.045858 -21.892160 -33.414836 -12.040579 0.000000 0.000000 0.000000 2.105398 -0.741818 -2.658349 -1.375036 -1.102630 6.709673 19.815101 7.149161 6.355986 -8.728203 -1.428465 72.630777 106.860017 77.989791 -98.849052 0.000000 0.000000 0.000000 
6.100553 49.288574 -6.906445 0.000000 0.000000 0.000000 -89.455473 -10.261493 -3.126605 16.321896 28.852058 2.939077 0.925732 -16.332939 -8.899719 4.976265 31.914448 -3.738129 10.475221 0.119569 8.170314 0.000000 0.000000 0.000000 -88.554168 -5.856986 0.733937 9.087336 -19.917453 -9.452943 -10.418076 20.765828 -11.299503 13.639340 -29.657351 21.745017 5.070396 -6.503467 -38.864791 0.000000 0.000000 0.000000 -91.700323 -1.393372 3.534241 1.526538 -5.744340 -2.743023 -1.295720 -2.676344 -0.745444 0.020001 0.536316 -0.163686 0.000000 0.000000 0.000000 1.099460 0.682884 -0.006498 -7.295276 -24.020015 -13.392632 6.238553 -52.912010 28.699700 0.000000 0.000000 0.000000 -0.211296 0.846650 -1.753882 3.780255 -4.270834 -11.220220 7.872742 -9.618293 1.144008 51.912347 -26.598717 -28.052965 -21.862046 -33.442163 -12.038807 0.000000 0.000000 0.000000 2.108641 -0.727311 -2.659920 -1.375908 -1.091001 6.725602 19.788322 7.159313 6.373923 -8.704445 -1.411242 72.610396 106.919064 78.008649 -98.933378 0.000000 0.000000 0.000000 
6.100842 49.287018 -6.906363 0.000000 0.000000 0.000000 -89.458027 -10.244975 -3.133575 16.299531 28.861125 2.952448 0.937192 -16.344701 -8.896594 4.969705 31.886479 -3.729950 10.466412 0.119101 8.174681 0.000000 0.000000 0.000000 -88.555213 -5.836734 0.731831 9.087463 -19.923204 -9.455511 -10.419547 20.749843 -11.291121 13.653682 -29.668662 21.724658 5.079767 -6.503289 -38.842292 0.000000 0.000000 0.000000 -91.696758 -1.393436 3.519439 1.548786 -5.743335 -2.708300 -1.296174 -2.659480 -0.747577 0.020080 0.535164 -0.163393 0.000000 0.000000 0.000000 1.101044 0.698635 -0.010980 -7.442620 -24.001193 -13.385554 6.047583 -52.878819 28.518630 0.000000 0.000000 0.000000 -0.212321 0.861109 -1.755710 3.777987 -4.255395 -11.218476 7.858264 -9.630208 1.153087 51.902911 -26.594417 -28.059134 -21.816645 -33.458805 -12.027610 0.000000 0.000000 0.000000 2.108288 -0.710356 -2.662425 -1.379845 -1.088079 6.738405 19.758986 7.172465 6.392821 -8.685255 -1.384536 72.602937 106.920963 78.030861 -98.968464 0.000000 0.000000 0.000000 
6.100581 49.285412 -6.904825 0.000000 0.000000 0.000000 -89.459345 -10.227674 -3.140695 16.265650 28.869567 2.971512 0.955441 -16.360624 -8.894697 4.974302 31.854565 -3.733279 10.460490 0.118958 8.180919 0.000000 0.000000 0.000000 -88.555458 -5.818149 0.727692 9.084934 -19.927231 -9.458516 -10.429775 20.725874 -11.282995 13.661669 -29.682940 21.691906 5.088932 -6.502761 -38.821071 0.000000 0.000000 0.000000 -91.688241 -1.391608 3.505080 1.571703 -5.746734 -2.678098 -1.300506 -2.641634 -0.749509 0.020706 0.533516 -0.163234 0.000000 0.000000 0.000000 1.100620 0.715428 -0.014511 -7.612652 -23.987119 -13.376149 5.838584 -52.848999 28.323937 0.000000 0.000000 0.000000 -0.216979 0.877808 -1.757200 3.776100 -4.223560 -11.203868 7.843126 -9.639702 1.162727 51.893684 -26.601743 -28.063427 -21.760754 -33.467862 -12.008728 0.000000 0.000000 0.000000 2.104407 -0.692615 -2.664989 -1.386631 -1.092990 6.745405 19.728062 7.192812 6.410696 -8.668061 -1.347671 72.609269 106.865010 78.055484 -98.951286 0.000000 0.000000 0.000000 
6.099919 49.284088 -6.901766 0.000000 0.000000 0.000000 -89.458007 -10.211914 -3.146899 16.224809 28.874785 2.992803 0.977839 -16.376929 -8.893543 4.985930 31.824935 -3.743978 10.461857 0.119576 8.186391 0.000000 0.000000 0.000000 -88.554632 -5.805837 0.719434 9.078128 -19.929312 -9.462303 -10.445017 20.697633 -11.276003 13.673725 -29.695504 21.661740 5.087998 -6.498899 -38.806130 0.000000 0.000000 0.000000 -91.674922 -1.388014 3.492352 1.593178 -5.753844 -2.654872 -1.308113 -2.624233 -0.750421 0.020911 0.532140 -0.163101 0.000000 0.000000 0.000000 1.097794 0.731846 -0.016280 -7.788813 -23.978113 -13.363856 5.634763 -52.825899 28.133819 0.000000 0.000000 0.000000 -0.225024 0.895150 -1.757806 3.774575 -4.177942 -11.178419 7.827549 -9.644158 1.174293 51.885734 -26.618668 -28.067874 -21.699644 -33.475017 -11.984861 0.000000 0.000000 0.000000 2.097331 -0.675329 -2.666874 -1.395187 -1.104779 6.745920 19.701129 7.217527 6.425631 -8.647897 -1.303082 72.630811 106.772543 78.080510 -98.900968 0.000000 0.000000 0.000000 
6.098914 49.283150 -6.897867 0.000000 0.000000 0.000000 -89.454455 -10.198648 -3.151600 16.183047 28.874570 3.013290 1.000381 -16.388194 -8.892907 4.996416 31.803444 -3.754211 10.466872 0.120499 8.189877 0.000000 0.000000 0.000000 -88.552166 -5.800772 0.707916 9.066087 -19.926358 -9.466763 -10.459626 20.671619 -11.270454 13.694277 -29.702806 21.644671 5.079021 -6.493019 -38.798056 0.000000 0.000000 0.000000 -91.657710 -1.382842 3.482651 1.611447 -5.763490 -2.640798 -1.318074 -2.608398 -0.749796 0.021152 0.531178 -0.162633 0.000000 0.000000 0.000000 1.092533 0.746867 -0.015711 -7.953998 -23.972782 -13.348692 5.461753 -52.812013 27.967454 0.000000 0.000000 0.000000 -0.235969 0.912129 -1.757640 3.773214 -4.123150 -11.145634 7.815633 -9.648808 1.184486 51.876185 -26.643450 -28.075984 -21.638108 -33.484227 -11.957817 0.000000 0.000000 0.000000 2.088158 -0.659157 -2.667623 -1.404834 -1.120868 6.740150 19.680857 7.242856 6.436220 -8.622204 -1.255044 72.665884 106.681503 78.104060 -98.852952 0.000000 0.000000 0.000000 
6.097302 49.282227 -6.893333 0.000000 0.000000 0.000000 -89.449558 -10.190038 -3.155581 16.146077 28.868672 3.030272 1.019943 -16.392538 -8.892861 5.000993 31.792915 -3.760828 10.468507 0.121235 8.191810 0.000000 0.000000 0.000000 -88.547331 -5.802251 0.695016 9.048495 -19.916850 -9.472576 -10.466456 20.648475 -11.266809 13.720802 -29.705094 21.641340 5.069500 -6.488298 -38.793361 0.000000 0.000000 0.000000 -91.638859 -1.377230 3.474905 1.625534 -5.773903 -2.636851 -1.329050 -2.594685 -0.747395 0.020888 0.530581 -0.161784 0.000000 0.000000 0.000000 1.085195 0.759691 -0.012860 -8.094113 -23.969786 -13.331403 5.338474 -52.805873 27.839052 0.000000 0.000000 0.000000 -0.248512 0.927574 -1.756658 3.771791 -4.064194 -11.108337 7.807477 -9.651309 1.191325 51.862186 -26.675990 -28.088033 -21.579732 -33.496948 -11.928579 0.000000 0.000000 0.000000 2.077806 -0.645101 -2.667151 -1.414739 -1.139694 6.729473 19.665725 7.259899 6.443433 -8.591576 -1.211079 72.709898 106.632790 78.124243 -98.846265 0.000000 0.000000 0.000000 
6.095344 49.280754 -6.889030 0.000000 0.000000 0.000000 -89.444770 -10.187463 -3.159491 16.116806 28.858188 3.043917 1.034508 -16.391947 -8.894247 5.001030 31.792984 -3.766464 10.465557 0.121534 8.192309 0.000000 0.000000 0.000000 -88.540487 -5.808459 0.682664 9.026913 -19.900755 -9.480897 -10.456795 20.626540 -11.265489 13.750808 -29.704848 21.646779 5.071341 -6.489061 -38.786424 0.000000 0.000000 0.000000 -91.621387 -1.372021 3.469472 1.635380 -5.783640 -2.642740 -1.339531 -2.583815 -0.743328 0.020595 0.530512 -0.160722 0.000000 0.000000 0.000000 1.076330 0.769716 -0.007908 -8.198334 -23.967004 -13.313393 5.279718 -52.806030 27.758451 0.000000 0.000000 0.000000 -0.261934 0.940700 -1.755078 3.770055 -4.006711 -11.069466 7.803193 -9.652802 1.194548 51.840904 -26.715655 -28.101732 -21.526603 -33.509034 -11.896478 0.000000 0.000000 0.000000 2.067750 -0.633591 -2.665614 -1.423962 -1.159015 6.716985 19.659330 7.265148 6.442909 -8.560448 -1.175776 72.756985 106.646874 78.139823 -98.900019 0.000000 0.000000 0.000000 
6.092721 49.278728 -6.885706 0.000000 0.000000 0.000000 -89.441641 -10.191278 -3.163716 16.096792 28.845405 3.053908 1.043510 -16.386913 -8.898161 4.997695 31.802614 -3.771712 10.462690 0.121551 8.190995 0.000000 0.000000 0.000000 -88.533930 -5.818377 0.672105 9.002223 -19.879952 -9.492054 -10.431820 20.601592 -11.266668 13.781168 -29.704838 21.657055 5.085596 -6.494817 -38.774953 0.000000 0.000000 0.000000 -91.607624 -1.367289 3.467068 1.641149 -5.791328 -2.657397 -1.348147 -2.576185 -0.737905 0.020432 0.530408 -0.159568 0.000000 0.000000 0.000000 1.066327 0.776604 -0.001403 -8.260046 -23.962214 -13.296363 5.285614 -52.809257 27.726931 0.000000 0.000000 0.000000 -0.274803 0.950651 -1.753031 3.768068 -3.956760 -11.030412 7.800472 -9.645791 1.193321 51.812627 -26.761096 -28.112866 -21.481085 -33.517009 -11.861640 0.000000 0.000000 0.000000 2.058845 -0.625108 -2.663032 -1.431947 -1.176707 6.705594 19.658779 7.265038 6.438510 -8.534048 -1.150490 72.801204 106.711665 78.151059 -99.000498 0.000000 0.000000 0.000000 
6.089545 49.276016 -6.883549 0.000000 0.000000 0.000000 -89.440234 -10.200387 -3.167123 16.087384 28.833118 3.058891 1.046968 -16.377632 -8.905057 4.990427 31.821701 -3.774698 10.464933 0.121761 8.187723 0.000000 0.000000 0.000000 -88.529422 -5.830562 0.665032 8.976393 -19.857206 -9.507402 -10.399138 20.573307 -11.268501 13.813367 -29.702959 21.679394 5.099978 -6.500807 -38.760487 0.000000 0.000000 0.000000 -91.599394 -1.362707 3.468448 1.643627 -5.796119 -2.678357 -1.353999 -2.571981 -0.731726 0.020501 0.530301 -0.158859 0.000000 0.000000 0.000000 1.055295 0.780148 0.006121 -8.277551 -23.953987 -13.281224 5.351130 -52.815558 27.740250 0.000000 0.000000 0.000000 -0.285977 0.956881 -1.750664 3.765730 -3.918617 -10.992287 7.800017 -9.630639 1.186528 51.782379 -26.810511 -28.117222 -21.445723 -33.521500 -11.825430 0.000000 0.000000 0.000000 2.052013 -0.619883 -2.659748 -1.437863 -1.192623 6.698066 19.668288 7.262499 6.429421 -8.514590 -1.132628 72.838374 106.806441 78.157745 -99.125791 0.000000 0.000000 0.000000 
